<svg width="50" height="50" viewBox="0 0 50 50" fill="none" xmlns="http://www.w3.org/2000/svg">
<g clip-path="url(#clip0)">
<path fill-rule="evenodd" clip-rule="evenodd" d="M25 50C38.8071 50 50 38.8071 50 25C50 11.1929 38.8071 0 25 0C11.1929 0 0 11.1929 0 25C0 38.8071 11.1929 50 25 50Z" fill="#2BE080"/>
<path d="M28.4225 30.04C28.0758 30.3333 27.6225 30.5733 27.0625 30.76C26.5292 30.92 25.9025 31 25.1825 31C24.2225 31 23.4225 30.88 22.7825 30.64C22.1692 30.4 21.7692 29.9867 21.5825 29.4C20.8358 27.0533 20.2225 25.16 19.7425 23.72C19.2625 22.2533 18.8892 20.9733 18.6225 19.88H18.4225C18.3425 21.4533 18.2758 22.8933 18.2225 24.2C18.1958 25.48 18.1692 26.7333 18.1425 27.96C18.1425 29.1867 18.1158 30.4267 18.0625 31.68C18.0358 32.9333 17.9825 34.32 17.9025 35.84C17.5558 35.9733 17.1025 36.08 16.5425 36.16C15.9825 36.2667 15.4225 36.32 14.8625 36.32C13.6892 36.32 12.7692 36.1333 12.1025 35.76C11.4625 35.3867 11.1425 34.7067 11.1425 33.72L12.3025 13.32C12.5158 12.9733 12.9825 12.6 13.7025 12.2C14.4225 11.8 15.4358 11.6 16.7425 11.6C18.1558 11.6 19.2625 11.8267 20.0625 12.28C20.8625 12.7067 21.4492 13.4133 21.8225 14.4C22.0625 15.04 22.3158 15.7733 22.5825 16.6C22.8758 17.4267 23.1558 18.28 23.4225 19.16C23.7158 20.04 23.9958 20.92 24.2625 21.8C24.5292 22.6533 24.7692 23.4267 24.9825 24.12H25.1825C25.8225 21.88 26.4625 19.72 27.1025 17.64C27.7425 15.5333 28.3292 13.7733 28.8625 12.36C29.2625 12.1467 29.7692 11.9733 30.3825 11.84C31.0225 11.68 31.7292 11.6 32.5025 11.6C33.8092 11.6 34.8758 11.8 35.7025 12.2C36.5292 12.5733 37.0092 13.12 37.1425 13.84C37.2492 14.3733 37.3558 15.2 37.4625 16.32C37.5958 17.4133 37.7292 18.6533 37.8625 20.04C37.9958 21.4267 38.1292 22.8933 38.2625 24.44C38.3958 25.9867 38.5158 27.48 38.6225 28.92C38.7558 30.3333 38.8625 31.64 38.9425 32.84C39.0225 34.0133 39.0758 34.92 39.1025 35.56C38.6492 35.8267 38.1692 36.0133 37.6625 36.12C37.1825 36.2533 36.5558 36.32 35.7825 36.32C34.7692 36.32 33.9158 36.1467 33.2225 35.8C32.5292 35.4533 32.1558 34.7733 32.1025 33.76C31.9425 30.8533 31.8358 28.24 31.7825 25.92C31.7558 23.6 31.7025 21.6533 31.6225 20.08H31.4225C31.1558 21.12 30.7692 22.4267 30.2625 24C29.7558 25.5733 29.1425 27.5867 28.4225 30.04Z" fill="white"/>
</g>
<defs>
<clipPath id="clip0">
<rect width="50" height="50" fill="white"/>
</clipPath>
</defs>
</svg>
